<?xml version="1.0" encoding="UTF-8"?><svg xmlns="http://www.w3.org/2000/svg" xmlns:xlink="http://www.w3.org/1999/xlink" viewBox="0 0 1024 1024"><defs><style>.cls-1{clip-path:url(#clippath);}.cls-2{fill:none;}.cls-2,.cls-3,.cls-4,.cls-5{stroke-width:0px;}.cls-6{mix-blend-mode:multiply;}.cls-3{fill:#efeeec;}.cls-7{filter:url(#drop-shadow-1);}.cls-4{fill:#6667ab;}.cls-5{fill:url(#_名称未設定グラデーション_3);opacity:.15;}.cls-5,.cls-8{isolation:isolate;}</style><filter id="drop-shadow-1" filterUnits="userSpaceOnUse"><feOffset dx="0" dy="10"/><feGaussianBlur result="blur" stdDeviation="10"/><feFlood flood-color="#000" flood-opacity=".3"/><feComposite in2="blur" operator="in"/><feComposite in="SourceGraphic"/></filter><clipPath id="clippath"><path id="Mask-8" class="cls-2" d="M924.93,356.72c0-9.78,0-19.57-.06-29.35-.05-8.24-.14-16.48-.37-24.72-.48-17.95-1.54-36.06-4.74-53.81-3.05-17.79-8.73-35.02-16.86-51.13-16.51-32.38-42.84-58.71-75.23-75.2-16.13-8.13-33.38-13.81-51.19-16.86-17.76-3.19-35.87-4.24-53.82-4.73-8.24-.22-16.48-.32-24.73-.37-9.79-.06-19.58-.06-29.36-.06l-113.64-.41h-85l-111.64.41c-9.81,0-19.61,0-29.42.06-8.26.05-16.52.14-24.78.37-17.99.49-36.15,1.54-53.95,4.74-17.83,3.04-35.1,8.72-51.26,16.85-32.44,16.47-58.83,42.8-75.39,75.2-8.15,16.12-13.85,33.36-16.9,51.16-3.2,17.75-4.26,35.85-4.74,53.79-.22,8.23-.32,16.47-.37,24.71-.06,9.78-.56,21.94-.56,31.72v196l.51,112.43c0,9.8,0,19.59.06,29.39.05,8.25.15,16.5.37,24.75.49,17.98,1.55,36.11,4.75,53.89,3.05,17.81,8.75,35.07,16.89,51.2,16.54,32.43,42.93,58.79,75.38,75.3,16.16,8.14,33.45,13.83,51.29,16.88,17.79,3.19,35.94,4.25,53.92,4.74,8.26.22,16.52.32,24.78.37,9.81.06,19.61.06,29.42.06h310.28c9.79,0,19.58,0,29.36-.05,8.24-.05,16.49-.15,24.73-.37,17.96-.49,36.08-1.55,53.84-4.74,17.8-3.05,35.04-8.74,51.16-16.87,32.4-16.52,58.74-42.88,75.24-75.3,8.14-16.14,13.82-33.41,16.87-51.23,3.19-17.77,4.25-35.9,4.73-53.86.22-8.25.32-16.5.37-24.75.06-9.8.06-19.59.06-29.39,0,0,0-110.44,0-112.43v-85.99c0-1.47,0-112.37,0-112.37"/></clipPath><linearGradient id="_名称未設定グラデーション_3" x1="913.24" y1="1065.16" x2="412.79" y2="258.29" gradientUnits="userSpaceOnUse"><stop offset="0" stop-color="#43aced" stop-opacity="0"/><stop offset="1" stop-color="#231f20"/></linearGradient></defs><g class="cls-8"><g id="_レイヤー_1"><g id="_512x512_2x"><g id="Artwork" class="cls-7"><g class="cls-1"><rect class="cls-3" x="99" y="99.71" width="826.54" height="826.54"/><path class="cls-5" d="M737.13,335.22v.06l-.12-.07c-52.48-66.27-133.64-108.78-224.74-108.78-158.25,0-286.55,128.29-286.55,286.54,0,111.98,64.25,208.95,157.88,256.08l275.82,241.94h344.4v-437.76l-266.7-238.02Z"/><g id="Interface-02" class="cls-6"><path class="cls-4" d="M513.09,275.13c-131.54-.23-238.36,106.22-238.58,237.76-.23,131.54,106.22,238.36,237.76,238.58,17.33-.02,34.23-1.9,50.51-5.42-2.65-5.14-4.99-10.45-6.97-15.95-13.82,2.72-28.1,4.18-42.71,4.21-122.47.23-221.93-98.87-222.16-221.33-.23-122.47,98.87-221.93,221.33-222.16,122.48.14,221.79,99.27,222.16,221.75,0,15.12-1.52,29.89-4.4,44.16,5.3,1.94,10.42,4.23,15.38,6.79,3.51-16.19,5.4-32.98,5.45-50.21,0-131.38-106.38-237.94-237.76-238.17Z"/><path class="cls-4" d="M581.98,774.08c-22.24,5.92-45.6,9.1-69.71,9.1-149.18,0-270.12-120.94-270.12-270.12s120.94-270.12,270.12-270.12c149.13.14,269.98,120.99,270.12,270.12,0,24.06-3.16,47.38-9.07,69.58,4.69,4.16,9.08,8.64,13.16,13.41,7.98-26.3,12.3-54.18,12.33-83.08,0-158.25-128.29-286.54-286.54-286.54s-286.55,128.29-286.55,286.54,128.29,286.55,286.55,286.55c28.89-.03,56.78-4.35,83.08-12.33-4.75-4.06-9.22-8.44-13.37-13.11Z"/><path class="cls-4" d="M369.61,655.55l185.28-77.86-107.34-107.42-77.94,185.28ZM526.07,572.36l-125.66,52.81,52.81-125.66,72.85,72.85Z"/><path class="cls-4" d="M654.93,370.48l-184.95,77.78,107.18,106.77,77.78-184.54ZM498.88,453.76l125.25-52.73-52.64,125.33-72.6-72.6Z"/><g id="Layer_1"><path class="cls-4" d="M787.73,659.67l-16.31-2.77c-1.69-5.47-3.89-10.77-6.56-15.83l9.61-13.45c4.09-5.71,3.43-13.55-1.55-18.51l-14.47-14.47c-2.68-2.71-6.34-4.23-10.15-4.22-2.98,0-5.89.93-8.3,2.68l-13.5,9.61c-5.23-2.78-10.72-5.04-16.39-6.75l-2.71-16.09c-1.16-6.94-7.17-12.02-14.21-11.99h-20.44c-7.03-.01-13.03,5.07-14.18,12l-2.81,16.51c-5.46,1.71-10.75,3.94-15.78,6.65l-13.36-9.59c-5.72-4.08-13.54-3.42-18.5,1.55l-14.52,14.47c-4.96,4.96-5.62,12.78-1.55,18.5l9.71,13.65c-2.66,5.07-4.83,10.37-6.48,15.85l-16.12,2.71c-6.93,1.15-12.01,7.16-11.99,14.18v20.45c-.01,7.03,5.06,13.03,11.99,14.18l16.51,2.82c1.71,5.46,3.94,10.75,6.65,15.78l-9.57,13.31c-4.09,5.71-3.43,13.55,1.55,18.5l14.47,14.47c2.68,2.71,6.34,4.23,10.15,4.22,2.98.01,5.89-.92,8.3-2.67l13.64-9.71c4.91,2.56,10.05,4.68,15.34,6.31l2.72,16.32c1.15,6.93,7.16,12.01,14.18,11.99h20.51c7.03.02,13.03-5.06,14.18-11.99l2.77-16.32c5.47-1.69,10.77-3.89,15.84-6.56l13.45,9.62c5.72,4.09,13.55,3.43,18.5-1.55l14.47-14.47c4.96-4.96,5.62-12.79,1.55-18.51l-9.61-13.5c2.68-5.06,4.87-10.36,6.56-15.83l16.31-2.72c6.93-1.15,12.01-7.15,11.99-14.18v-20.45c.11-7.03-4.95-13.08-11.89-14.2ZM786.48,694.25c0,.63-.45,1.16-1.07,1.26l-20.4,3.46c-2.55.42-4.61,2.3-5.24,4.81-1.84,7.14-4.69,13.98-8.45,20.32-1.32,2.23-1.21,5.02.29,7.13l12,16.91c.34.52.28,1.21-.14,1.66l-14.47,14.46c-.24.25-.58.39-.92.39-.26,0-.52-.08-.73-.24l-16.85-11.99c-2.11-1.5-4.91-1.61-7.14-.29-6.34,3.76-13.18,6.61-20.32,8.44-2.51.63-4.4,2.69-4.81,5.24l-3.47,20.35c-.09.62-.63,1.08-1.26,1.07h-20.41c-.63,0-1.17-.45-1.26-1.07l-3.4-20.39c-.43-2.54-2.31-4.59-4.8-5.24-6.97-1.81-13.67-4.55-19.91-8.13-1-.56-2.13-.87-3.28-.87-1.36-.01-2.7.41-3.8,1.21l-16.99,12.09c-.22.15-.47.23-.73.24-.34,0-.67-.14-.92-.39l-14.47-14.47c-.43-.45-.49-1.14-.14-1.65l11.94-16.75c1.51-2.14,1.63-4.96.29-7.21-3.8-6.32-6.67-13.15-8.52-20.29-.67-2.48-2.71-4.36-5.24-4.8l-20.53-3.5c-.62-.09-1.08-.63-1.07-1.26v-20.41c0-.63.45-1.17,1.07-1.27l20.24-3.4c2.57-.42,4.65-2.33,5.29-4.85,1.79-7.16,4.58-14.02,8.3-20.39,1.3-2.22,1.17-5-.34-7.09l-12.09-16.99c-.35-.51-.29-1.21.14-1.65l14.47-14.47c.24-.25.58-.39.92-.39.26,0,.52.09.73.24l16.75,11.94c2.14,1.5,4.96,1.62,7.21.29,6.32-3.8,13.15-6.67,20.29-8.52,2.48-.67,4.35-2.71,4.8-5.24l3.5-20.53c.09-.62.63-1.08,1.26-1.07h20.44c.63-.01,1.17.45,1.26,1.07l3.4,20.24c.42,2.55,2.31,4.62,4.81,5.27,7.31,1.83,14.33,4.7,20.82,8.52,2.23,1.32,5.02,1.21,7.13-.29l16.75-12.04c.22-.14.47-.23.73-.24.35,0,.68.14.92.39l14.47,14.48c.43.45.49,1.14.14,1.65l-11.99,16.85c-1.5,2.11-1.62,4.91-.29,7.14,3.77,6.34,6.61,13.18,8.45,20.32.63,2.51,2.69,4.4,5.24,4.8l20.38,3.44c.62.1,1.08.64,1.07,1.27v20.42h-.05Z"/><path class="cls-4" d="M683.27,634.26c-27.67,0-50.09,22.43-50.09,50.09s22.43,50.09,50.09,50.09,50.09-22.43,50.09-50.09c-.02-27.66-22.44-50.08-50.09-50.09h0ZM683.27,721.36c-20.44-.01-36.99-16.59-36.98-37.03.01-20.44,16.59-36.99,37.03-36.98,20.43.01,36.98,16.58,36.98,37.01-.01,20.43-16.57,36.99-37,37h-.03Z"/></g></g></g></g></g></g></g></svg>