<?xml version="1.0" encoding="UTF-8"?><svg xmlns="http://www.w3.org/2000/svg" viewBox="0 0 72 72"><defs><style>.cls-1{mix-blend-mode:multiply;}.cls-2{fill:#000;stroke-width:0px;}.cls-3{isolation:isolate;}</style></defs><g class="cls-3"><g id="_レイヤー_1"><g id="Interface-02" class="cls-1"><path class="cls-2" d="M36.05,9.43c-14.67-.03-26.58,11.85-26.61,26.51-.03,14.67,11.85,26.58,26.51,26.61,1.93,0,3.82-.21,5.63-.6-.29-.57-.56-1.17-.78-1.78-1.54.3-3.13.47-4.76.47-13.66.03-24.75-11.03-24.77-24.68-.03-13.66,11.03-24.75,24.68-24.77,13.66.02,24.73,11.07,24.77,24.73,0,1.69-.17,3.33-.49,4.92.59.22,1.16.47,1.72.76.39-1.81.6-3.68.61-5.6,0-14.65-11.86-26.54-26.51-26.56Z"/><path class="cls-2" d="M43.73,65.07c-2.48.66-5.09,1.01-7.77,1.01-16.64,0-30.12-13.49-30.12-30.12S19.32,5.84,35.96,5.84c16.63.02,30.11,13.49,30.12,30.12,0,2.68-.35,5.28-1.01,7.76.52.46,1.01.96,1.47,1.5.89-2.93,1.37-6.04,1.38-9.26,0-17.65-14.31-31.95-31.95-31.95S4,18.31,4,35.96s14.31,31.96,31.96,31.96c3.22,0,6.33-.49,9.26-1.38-.53-.45-1.03-.94-1.49-1.46Z"/><path class="cls-2" d="M20.05,51.85l20.66-8.68-11.97-11.98-8.69,20.66ZM37.49,42.58l-14.01,5.89,5.89-14.01,8.12,8.12Z"/><path class="cls-2" d="M51.86,20.06l-20.63,8.67,11.95,11.91,8.67-20.58ZM34.46,29.35l13.97-5.88-5.87,13.98-8.1-8.1Z"/><g id="Layer_1"><path class="cls-2" d="M66.67,52.31l-1.82-.31c-.19-.61-.43-1.2-.73-1.77l1.07-1.5c.46-.64.38-1.51-.17-2.06l-1.61-1.61c-.3-.3-.71-.47-1.13-.47-.33,0-.66.1-.93.3l-1.51,1.07c-.58-.31-1.2-.56-1.83-.75l-.3-1.79c-.13-.77-.8-1.34-1.58-1.34h-2.28c-.78,0-1.45.57-1.58,1.34l-.31,1.84c-.61.19-1.2.44-1.76.74l-1.49-1.07c-.64-.45-1.51-.38-2.06.17l-1.62,1.61c-.55.55-.63,1.43-.17,2.06l1.08,1.52c-.3.56-.54,1.16-.72,1.77l-1.8.3c-.77.13-1.34.8-1.34,1.58v2.28c0,.78.56,1.45,1.34,1.58l1.84.31c.19.61.44,1.2.74,1.76l-1.07,1.48c-.46.64-.38,1.51.17,2.06l1.61,1.61c.3.3.71.47,1.13.47.33,0,.66-.1.93-.3l1.52-1.08c.55.29,1.12.52,1.71.7l.3,1.82c.13.77.8,1.34,1.58,1.34h2.29c.78,0,1.45-.56,1.58-1.34l.31-1.82c.61-.19,1.2-.43,1.77-.73l1.5,1.07c.64.46,1.51.38,2.06-.17l1.61-1.61c.55-.55.63-1.43.17-2.06l-1.07-1.51c.3-.56.54-1.16.73-1.77l1.82-.3c.77-.13,1.34-.8,1.34-1.58v-2.28c.01-.78-.55-1.46-1.33-1.58ZM66.53,56.17c0,.07-.05.13-.12.14l-2.27.39c-.28.05-.51.26-.58.54-.21.8-.52,1.56-.94,2.27-.15.25-.13.56.03.8l1.34,1.89c.04.06.03.13-.02.18l-1.61,1.61s-.06.04-.1.04c-.03,0-.06,0-.08-.03l-1.88-1.34c-.24-.17-.55-.18-.8-.03-.71.42-1.47.74-2.27.94-.28.07-.49.3-.54.58l-.39,2.27c-.01.07-.07.12-.14.12h-2.28c-.07,0-.13-.05-.14-.12l-.38-2.27c-.05-.28-.26-.51-.54-.58-.78-.2-1.52-.51-2.22-.91-.11-.06-.24-.1-.37-.1-.15,0-.3.05-.42.14l-1.89,1.35s-.05.03-.08.03c-.04,0-.08-.02-.1-.04l-1.61-1.61s-.06-.13-.02-.18l1.33-1.87c.17-.24.18-.55.03-.8-.42-.7-.74-1.47-.95-2.26-.07-.28-.3-.49-.58-.54l-2.29-.39c-.07-.01-.12-.07-.12-.14v-2.28c0-.07.05-.13.12-.14l2.26-.38c.29-.05.52-.26.59-.54.2-.8.51-1.56.93-2.27.15-.25.13-.56-.04-.79l-1.35-1.89c-.04-.06-.03-.13.02-.18l1.61-1.61s.06-.04.1-.04c.03,0,.06,0,.08.03l1.87,1.33c.24.17.55.18.8.03.7-.42,1.47-.74,2.26-.95.28-.07.49-.3.54-.58l.39-2.29c0-.07.07-.12.14-.12h2.28c.07,0,.13.05.14.12l.38,2.26c.05.28.26.51.54.59.82.2,1.6.52,2.32.95.25.15.56.13.8-.03l1.87-1.34s.05-.03.08-.03c.04,0,.08.02.1.04l1.61,1.61s.06.13.02.18l-1.34,1.88c-.17.24-.18.55-.03.8.42.71.74,1.47.94,2.27.07.28.3.49.58.54l2.27.38c.07.01.12.07.12.14v2.28h0Z"/><path class="cls-2" d="M55.02,49.48c-3.09,0-5.59,2.5-5.59,5.59s2.5,5.59,5.59,5.59,5.59-2.5,5.59-5.59c0-3.08-2.5-5.58-5.59-5.59h0ZM55.02,59.19c-2.28,0-4.13-1.85-4.12-4.13,0-2.28,1.85-4.13,4.13-4.12,2.28,0,4.12,1.85,4.12,4.13,0,2.28-1.85,4.12-4.13,4.13h0Z"/></g></g></g></g></svg>